<svg preserveAspectRatio="none" width="100%" height="100%" overflow="visible" style="display: block;" viewBox="0 0 24 22" fill="none" xmlns="http://www.w3.org/2000/svg">
<path id="Shape" fill-rule="evenodd" clip-rule="evenodd" d="M0 3C0 1.34315 1.34315 0 3 0H21C22.6569 0 24 1.34315 24 3V19C24 20.6569 22.6569 22 21 22H3C1.34314 22 0 20.6569 0 19V3ZM3 2C2.44772 2 2 2.44772 2 3V6H7V2H3ZM9 2V6H22V3C22 2.44771 21.5523 2 21 2H9ZM2 19V8H22V19C22 19.5523 21.5523 20 21 20H3C2.44772 20 2 19.5523 2 19Z" fill="var(--fill-0, white)"/>
</svg>
