<svg preserveAspectRatio="none" width="100%" height="100%" overflow="visible" style="display: block;" viewBox="0 0 18.8155 20.623" fill="none" xmlns="http://www.w3.org/2000/svg">
<path id="Shape" d="M7 15.5C7 16.596 7.27126 17.6287 7.75031 18.5345L7.75 19.25C7.75 19.6642 7.41421 20 7 20C6.6203 20 6.30651 19.7178 6.25685 19.3518L6.25 19.25L6.25002 16.9818C2.83323 16.7316 0.122835 13.938 0.00406027 10.4863L0 10.25V9.75C0 9.33579 0.335786 9 0.75 9C1.1297 9 1.44349 9.28215 1.49315 9.64823L1.5 9.75V10.25C1.5 13.077 3.73445 15.3821 6.5336 15.4956L6.75 15.5H7ZM7.17482 13.9962C7.65769 11.9575 9.1007 10.2902 11 9.49816V4C11 1.79086 9.20914 0 7 0C4.79086 0 3 1.79086 3 4V10C3 12.2091 4.79086 14 7 14C7.05858 14 7.11686 13.9987 7.17482 13.9962ZM10.2782 11.9754C10.593 13.0656 9.93858 14.1991 8.83701 14.4716L8.25282 14.6161C8.20791 14.9038 8.18457 15.199 8.18457 15.4998C8.18457 15.8145 8.21011 16.123 8.25916 16.4232L8.79862 16.5532C9.91113 16.8211 10.5725 17.9661 10.2486 19.0636L10.0623 19.6949C10.5014 20.0805 11.0019 20.3937 11.5464 20.6165L12.0397 20.0977C12.8283 19.2685 14.1506 19.2687 14.9388 20.0982L15.4375 20.623C15.9811 20.4027 16.4811 20.0925 16.9204 19.7101L16.7223 19.0242C16.4076 17.9339 17.062 16.8005 18.1635 16.528L18.7472 16.3835C18.7922 16.0958 18.8155 15.8006 18.8155 15.4998C18.8155 15.1851 18.7899 14.8765 18.7409 14.5762L18.2019 14.4464C17.0894 14.1785 16.4281 13.0335 16.7519 11.9359L16.9381 11.3051C16.499 10.9193 15.9985 10.6061 15.4539 10.3833L14.9608 10.9018C14.1722 11.7311 12.85 11.7309 12.0617 10.9013L11.5629 10.3765C11.0193 10.5967 10.5194 10.9068 10.0801 11.2892L10.2782 11.9754ZM13.5 16.9998C12.6994 16.9998 12.0504 16.3282 12.0504 15.4998C12.0504 14.6714 12.6994 13.9998 13.5 13.9998C14.3007 13.9998 14.9497 14.6714 14.9497 15.4998C14.9497 16.3282 14.3007 16.9998 13.5 16.9998Z" fill="var(--fill-0, #0B0C0C)"/>
</svg>
