<svg preserveAspectRatio="none" width="100%" height="100%" overflow="visible" style="display: block;" viewBox="0 0 26 19" fill="none" xmlns="http://www.w3.org/2000/svg">
<path id="Vector" fill-rule="evenodd" clip-rule="evenodd" d="M3.10557 0.552786C3.27496 0.214002 3.62123 0 4 0H22C22.3788 0 22.725 0.214002 22.8944 0.552786L25.8944 6.55279C25.9639 6.69164 26 6.84475 26 7V16C26 17.6569 24.6569 19 23 19H3C1.34315 19 0 17.6569 0 16V7C0 6.84475 0.0361451 6.69164 0.105573 6.55279L3.10557 0.552786ZM4.61803 2L2.61803 6H7C7.4089 6 7.77661 6.24895 7.92848 6.62861L9.67703 11H16.323L18.0715 6.62861C18.2234 6.24895 18.5911 6 19 6H23.382L21.382 2H4.61803ZM24 8H19.677L17.9285 12.3714C17.7766 12.751 17.4089 13 17 13H9C8.5911 13 8.22339 12.751 8.07152 12.3714L6.32297 8H2V16C2 16.5523 2.44771 17 3 17H23C23.5523 17 24 16.5523 24 16V8Z" fill="var(--fill-0, white)"/>
</svg>
