<svg preserveAspectRatio="none" width="100%" height="100%" overflow="visible" style="display: block;" viewBox="0 0 28 28.0008" fill="none" xmlns="http://www.w3.org/2000/svg">
<path id="Union" d="M0.822266 0.00610044C8.17093 0.430767 13.999 6.53867 13.999 14.012C13.999 21.377 8.33684 27.4144 1.1377 27.9973C0.527243 28.047 0.00367226 27.5596 0.0078125 26.9436L0.0410156 22.7639C7.64499 22.7639 13.8279 18.9487 13.9902 14.2034C13.7433 17.3518 7.57423 19.8733 0 19.8733V15.5266C7.60254 15.5266 13.7908 14.8707 13.9941 14.0491C13.9942 14.0367 13.9951 14.0243 13.9951 14.012C13.9951 13.998 13.9942 13.984 13.9941 13.97C13.7893 13.1485 7.60158 12.4915 0 12.4915V8.14575C7.57162 8.14575 13.7393 10.6658 13.9902 13.8127C13.8213 9.07111 7.64094 5.26098 0.0371094 5.26098L0.00390625 0.789304C-0.000247385 0.339711 0.377843 -0.022943 0.822266 0.00610044ZM27.1777 0.00121763C27.6222 -0.0237628 27.9963 0.338936 27.9922 0.784421L27.959 5.2561C20.2491 5.25615 14.0012 9.17353 14.001 14.0071C14.001 18.8408 20.2531 22.759 27.959 22.759L27.9922 26.9387C27.9963 27.5549 27.473 28.0424 26.8623 27.9924C19.6632 27.4095 14.001 21.3721 14.001 14.0071L14.0059 13.6624C14.1841 6.34893 19.944 0.423533 27.1777 0.00121763ZM28 12.4924C20.2768 12.4924 14.0135 13.1692 14.001 14.009C14.0091 14.8493 20.2742 15.5266 28 15.5266V19.8733C20.2691 19.8733 14.001 17.2462 14.001 14.0071C14.0067 10.77 20.2727 8.14575 28 8.14575V12.4924Z" fill="var(--fill-0, white)"/>
</svg>
