<svg preserveAspectRatio="none" width="100%" height="100%" overflow="visible" style="display: block;" viewBox="0 0 9 12" fill="none" xmlns="http://www.w3.org/2000/svg">
<path id="Shape" d="M4.5 0C3.11929 0 2 1.11929 2 2.5V6C2 7.38071 3.11929 8.5 4.5 8.5C5.88071 8.5 7 7.38071 7 6V2.5C7 1.11929 5.88071 0 4.5 0ZM0.5 5.5C0.776142 5.5 1 5.72386 1 6C1 7.933 2.567 9.5 4.5 9.5C6.433 9.5 8 7.933 8 6C8 5.72386 8.22386 5.5 8.5 5.5C8.77614 5.5 9 5.72386 9 6C9 8.31628 7.24998 10.2238 5 10.4725V11.5C5 11.7761 4.77614 12 4.5 12C4.22386 12 4 11.7761 4 11.5V10.4725C1.75002 10.2238 0 8.31628 0 6C0 5.72386 0.223858 5.5 0.5 5.5Z" fill="var(--fill-0, #0B0C0C)"/>
</svg>
